<?xml version="1.0" encoding="utf-8"?>
<!-- Generator: Adobe Illustrator 27.5.0, SVG Export Plug-In . SVG Version: 6.00 Build 0)  -->
<svg version="1.1" xmlns="http://www.w3.org/2000/svg" xmlns:xlink="http://www.w3.org/1999/xlink" x="0px" y="0px"
	 viewBox="0 0 3710 3710" style="enable-background:new 0 0 3710 3710;" xml:space="preserve">
<g id="Background">
	<g>
		<g>
			<rect style="fill:#FFFFFF;" width="3710" height="3710"/>
		</g>
	</g>
</g>
<g id="Illustration">
	<g>
		<path style="fill:#F4F7FA;" d="M2059.082,455.249c372.919,6.587,949.897,148.377,1115.973,512.753
			c58.004,127.263,54.077,314.354,46.224,688.535c-2.309,109.981-6.136,270.282-33.017,469.179
			c-55.84,413.171-93.853,694.443-237.722,858.224c-360.491,410.383-1662.671,398.525-2218.739-340.299
			c-303.338-403.033-350.004-976.362-72.637-1450.188C964.538,671.777,1559.831,446.43,2059.082,455.249z"/>
		<g>
			<g>
				<g>
					<path style="fill:#D8DEE8;" d="M3203.702,1171.352l-64.491,0.111c-4.442-42.594-14.684-83.481-29.924-121.894l54.528-31.617
						c14.902-8.641,19.998-28.13,11.408-43.575l-22.914-41.2c-8.642-15.54-27.834-21.247-42.893-12.701l-53.849,30.558
						c-25.063-35.115-54.974-66.776-88.854-94.009l30.972-53.196c8.887-15.264,3.615-35.351-11.802-44.915l-41.222-25.572
						c-15.584-9.667-35.578-5.098-44.63,10.256l-31.043,52.652c-39.887-18.576-82.989-31.977-128.451-39.165v-62.438
						c0-18.42-15.154-34.044-33.907-34.899l-50.189-2.29c-18.993-0.867-34.439,13.525-34.439,32.147v63.125
						c-46.864,3.904-92.039,14.437-134.508,30.735l-33.503-57.068c-9.845-16.77-31.712-23.272-48.873-14.472l-45.897,23.536
						c-17.357,8.901-23.316,29.845-13.277,46.729l34.713,58.385c-37.993,26.856-71.958,59.007-100.727,95.462l-62.788-35.519
						c-17.801-10.07-40.645-4.849-50.99,11.717l-27.603,44.203c-10.414,16.677-4.231,38.319,13.774,48.282l64.97,35.948
						c-18.015,41.482-30.184,85.949-35.478,132.443l-77.933,0.134c-20.974,0.036-38.034,15.931-38.034,35.503v52.049
						c0,19.571,17.06,35.225,38.034,34.964l80.003-0.995c6.754,45.406,20.094,88.632,39.052,128.764l-70.614,40.071
						c-18.006,10.218-24.188,31.947-13.774,48.476l27.603,43.813c10.345,16.42,33.189,21.317,50.99,10.994l71.422-41.414
						c28.537,33.748,61.727,63.4,98.556,88.08l-41.177,69.84c-10.038,17.026-4.079,37.886,13.277,46.541l45.897,22.886
						c17.161,8.557,39.028,1.745,48.873-15.164l40.837-70.14c40.325,14.221,83,23.246,127.174,26.361v78.191
						c0,18.622,15.446,32.795,34.439,31.659l50.189-3c18.753-1.121,33.907-16.959,33.907-35.379v-77.342
						c42.874-7.327,83.647-20.152,121.605-37.595l37.889,63.726c9.052,15.226,29.046,19.512,44.63,9.624l41.222-26.156
						c15.417-9.783,20.689-29.945,11.802-45.083l-36.781-62.652c32.923-26.051,62.233-56.188,87.166-89.52l61.345,33.943
						c15.059,8.332,34.251,2.353,42.893-13.308l22.914-41.525c8.59-15.567,3.494-34.983-11.408-43.413l-59.322-33.557
						c16.065-37.683,27.309-77.798,32.982-119.584l66.227-0.824c17.072-0.213,30.869-14.632,30.869-32.209v-46.743
						C3234.571,1185.548,3220.774,1171.323,3203.702,1171.352z M2681.593,1556.14c-190.829,7.08-350.525-141.003-350.525-330.982
						c0-189.979,159.696-340.102,350.525-335.461c184.344,4.484,329.25,152.669,329.25,331.117
						C3010.844,1399.264,2865.938,1549.3,2681.593,1556.14z"/>
				</g>
			</g>
		</g>
		<g>
			<g>
				<g>
					<path style="fill:#D8DEE8;" d="M2071.827,906.305l-37.921,0.065c-2.612-25.045-8.634-49.087-17.595-71.673l32.062-18.591
						c8.762-5.081,11.759-16.54,6.708-25.622l-13.473-24.226c-5.082-9.137-16.367-12.493-25.221-7.468l-31.663,17.968
						c-14.737-20.648-32.325-39.265-52.246-55.277l18.212-31.279c5.226-8.975,2.126-20.786-6.94-26.41l-24.239-15.036
						c-9.163-5.684-20.92-2.998-26.243,6.03l-18.253,30.96c-23.454-10.923-48.798-18.803-75.529-23.029V626
						c0-10.831-8.911-20.018-19.938-20.521l-29.511-1.346c-11.168-0.51-20.25,7.953-20.25,18.903v37.117
						c-27.556,2.296-54.119,8.489-79.091,18.072l-19.7-33.556c-5.789-9.861-18.647-13.684-28.737-8.51l-26.988,13.839
						c-10.206,5.234-13.71,17.549-7.807,27.477l20.411,34.33c-22.34,15.792-42.311,34.696-59.227,56.132l-36.919-20.885
						c-10.467-5.921-23.899-2.851-29.982,6.89l-16.23,25.991c-6.123,9.806-2.488,22.531,8.099,28.39l38.203,21.138
						c-10.593,24.392-17.748,50.538-20.861,77.877l-45.825,0.079c-12.333,0.021-22.364,9.368-22.364,20.876v30.605
						c0,11.508,10.031,20.712,22.364,20.559l47.042-0.585c3.971,26.699,11.816,52.116,22.963,75.713l-41.521,23.562
						c-10.588,6.008-14.223,18.785-8.099,28.504l16.23,25.762c6.083,9.655,19.515,12.534,29.982,6.465l41.996-24.351
						c16.78,19.844,36.295,37.279,57.951,51.791l-24.212,41.066c-5.903,10.011-2.399,22.277,7.807,27.366l26.988,13.457
						c10.091,5.032,22.948,1.026,28.737-8.917l24.012-41.242c23.711,8.362,48.804,13.669,74.778,15.5v45.977
						c0,10.95,9.082,19.283,20.25,18.616l29.511-1.764c11.027-0.659,19.938-9.972,19.938-20.803v-45.477
						c25.21-4.308,49.185-11.85,71.504-22.106l22.279,37.471c5.323,8.953,17.079,11.473,26.243,5.659l24.239-15.38
						c9.065-5.752,12.165-17.608,6.94-26.509l-21.627-36.839c19.359-15.318,36.593-33.039,51.254-52.638l36.071,19.958
						c8.855,4.899,20.14,1.384,25.221-7.826l13.473-24.417c5.051-9.153,2.054-20.57-6.708-25.527l-34.881-19.732
						c9.446-22.158,16.058-45.746,19.393-70.316l38.942-0.484c10.038-0.125,18.151-8.604,18.151-18.939v-27.485
						C2089.978,914.652,2081.865,906.287,2071.827,906.305z M1764.826,1132.561c-112.208,4.163-206.109-82.91-206.109-194.618
						c0-111.708,93.901-199.98,206.109-197.251c108.395,2.636,193.6,89.769,193.6,194.697
						C1958.426,1040.317,1873.221,1128.539,1764.826,1132.561z"/>
				</g>
			</g>
		</g>
		<g>
			<linearGradient id="SVGID_1_" gradientUnits="userSpaceOnUse" x1="-3764.2524" y1="1879.0892" x2="2454.8928" y2="2082.9958">
				<stop  offset="0" style="stop-color:#FFC444"/>
				<stop  offset="0.3138" style="stop-color:#FBA94A"/>
				<stop  offset="0.9964" style="stop-color:#F36F56"/>
			</linearGradient>
			<path style="fill:url(#SVGID_1_);" d="M799.15,2056.796l557.138-28.098h313.728l-601.763,33.571
				C1068.254,2062.27,799.15,2058.882,799.15,2056.796z"/>
			
				<linearGradient id="SVGID_00000022561848487960284110000016918384151020097719_" gradientUnits="userSpaceOnUse" x1="-749.7245" y1="1897.9784" x2="3365.2202" y2="2032.8948">
				<stop  offset="0" style="stop-color:#FFC444"/>
				<stop  offset="0.3138" style="stop-color:#FBA94A"/>
				<stop  offset="0.9964" style="stop-color:#F36F56"/>
			</linearGradient>
			<polygon style="fill:url(#SVGID_00000022561848487960284110000016918384151020097719_);" points="2270.427,1992.939 
				2634.19,1976.275 2846.497,1978.781 2375.905,2037.564 			"/>
			
				<linearGradient id="SVGID_00000068663978185478154140000015685238929098487180_" gradientUnits="userSpaceOnUse" x1="-2574.9514" y1="1721.4689" x2="2990.6797" y2="1903.9487">
				<stop  offset="0" style="stop-color:#FFC444"/>
				<stop  offset="0.3138" style="stop-color:#FBA94A"/>
				<stop  offset="0.9964" style="stop-color:#F36F56"/>
			</linearGradient>
			<polygon style="fill:url(#SVGID_00000068663978185478154140000015685238929098487180_);" points="1510.448,1834.037 
				2070.967,1822.412 2289.359,1822.412 1823.275,1924.216 			"/>
			
				<linearGradient id="SVGID_00000165213532839076591280000011793435920754109075_" gradientUnits="userSpaceOnUse" x1="2197.8811" y1="2676.446" x2="2267.1316" y2="1971.1144">
				<stop  offset="0" style="stop-color:#FFC444"/>
				<stop  offset="0.3138" style="stop-color:#FBA94A"/>
				<stop  offset="0.9964" style="stop-color:#F36F56"/>
			</linearGradient>
			
				<rect x="2121.677" y="1998.348" style="fill:url(#SVGID_00000165213532839076591280000011793435920754109075_);" width="254.228" height="319.137"/>
			<rect x="2270.427" y="2110.925" style="fill:#FFFFFF;" width="105.478" height="59.34"/>
			
				<linearGradient id="SVGID_00000022549386603407124350000008170450380308186503_" gradientUnits="userSpaceOnUse" x1="878.3855" y1="2756.2468" x2="949.8375" y2="2028.4908">
				<stop  offset="0" style="stop-color:#FFC444"/>
				<stop  offset="0.3138" style="stop-color:#FBA94A"/>
				<stop  offset="0.9964" style="stop-color:#F36F56"/>
			</linearGradient>
			
				<rect x="803.704" y="2056.203" style="fill:url(#SVGID_00000022549386603407124350000008170450380308186503_);" width="254.42" height="330.058"/>
			
				<linearGradient id="SVGID_00000078760485270075948730000000037832081695719552_" gradientUnits="userSpaceOnUse" x1="1553.0425" y1="2918.6624" x2="1663.1744" y2="1796.9419">
				<stop  offset="0" style="stop-color:#FFC444"/>
				<stop  offset="0.3138" style="stop-color:#FBA94A"/>
				<stop  offset="0.9964" style="stop-color:#F36F56"/>
			</linearGradient>
			
				<rect x="1508.516" y="1832.726" style="fill:url(#SVGID_00000078760485270075948730000000037832081695719552_);" width="250.982" height="522.592"/>
			<g>
				<g>
					
						<linearGradient id="SVGID_00000046305583682227867930000011796805274622412948_" gradientUnits="userSpaceOnUse" x1="2580.9077" y1="1729.8121" x2="1131.7213" y2="2581.2454">
						<stop  offset="0" style="stop-color:#FFC444"/>
						<stop  offset="0.3138" style="stop-color:#FBA94A"/>
						<stop  offset="0.9964" style="stop-color:#F36F56"/>
					</linearGradient>
					<polygon style="fill:url(#SVGID_00000046305583682227867930000011796805274622412948_);" points="2285.528,2280.744 
						1759.498,2317.327 1759.498,1835.022 2285.528,1821.079 					"/>
					<g>
						<polygon style="fill:#FFFFFF;" points="2062.051,1920.111 1969.222,1923.216 1969.222,1829.525 2062.051,1827.178 						"/>
						<polygon style="fill:#FFFFFF;" points="2062.051,2296.736 1969.222,2302.91 1969.222,2209.219 2062.051,2203.802 						"/>
					</g>
				</g>
				<g>
					
						<linearGradient id="SVGID_00000120560504676334244500000012289440610635574154_" gradientUnits="userSpaceOnUse" x1="1914.0959" y1="1872.6974" x2="517.1622" y2="2693.4309">
						<stop  offset="0" style="stop-color:#FFC444"/>
						<stop  offset="0.3138" style="stop-color:#FBA94A"/>
						<stop  offset="0.9964" style="stop-color:#F36F56"/>
					</linearGradient>
					<polygon style="fill:url(#SVGID_00000120560504676334244500000012289440610635574154_);" points="1670.107,2323.844 
						1078.752,2364.903 1078.752,2055.686 1670.107,2030.016 					"/>
					<g>
						<polygon style="fill:#FFFFFF;" points="1553.211,2219.116 1553.211,2155.158 1670.107,2149.067 1670.107,2212.392 						"/>
						<polygon style="fill:#FFFFFF;" points="1078.752,2247.614 1078.752,2180.972 1199.086,2174.358 1199.086,2240.313 						"/>
					</g>
				</g>
				<g>
					
						<linearGradient id="SVGID_00000163050258668072062560000016730806692405458602_" gradientUnits="userSpaceOnUse" x1="3056.1982" y1="1859.7437" x2="1906.9921" y2="2534.9312">
						<stop  offset="0" style="stop-color:#FFC444"/>
						<stop  offset="0.3138" style="stop-color:#FBA94A"/>
						<stop  offset="0.9964" style="stop-color:#F36F56"/>
					</linearGradient>
					<polygon style="fill:url(#SVGID_00000163050258668072062560000016730806692405458602_);" points="2849.377,2241.98 
						2374.919,2274.751 2374.919,1999.289 2849.377,1978.781 					"/>
					<g>
						<polygon style="fill:#FFFFFF;" points="2753.11,2147.523 2753.11,2090.289 2849.377,2085.422 2849.377,2142.146 						"/>
						<polygon style="fill:#FFFFFF;" points="2374.919,2170.265 2374.919,2110.898 2471.186,2105.639 2471.186,2164.461 						"/>
					</g>
				</g>
			</g>
			
				<linearGradient id="SVGID_00000057864873031085211990000010114638380500857263_" gradientUnits="userSpaceOnUse" x1="1572.8809" y1="2106.3408" x2="1656.0276" y2="1259.4702">
				<stop  offset="0" style="stop-color:#FFC444"/>
				<stop  offset="0.3138" style="stop-color:#FBA94A"/>
				<stop  offset="0.9964" style="stop-color:#F36F56"/>
			</linearGradient>
			
				<rect x="1508.516" y="1289.506" style="fill:url(#SVGID_00000057864873031085211990000010114638380500857263_);" width="250.982" height="388.506"/>
			<rect x="1549.773" y="1433.906" style="fill:#FFFFFF;" width="103.143" height="85.953"/>
			
				<linearGradient id="SVGID_00000071544605336522505280000000090414924609447864_" gradientUnits="userSpaceOnUse" x1="871.2918" y1="2236.9399" x2="980.5443" y2="1124.1774">
				<stop  offset="0" style="stop-color:#FFC444"/>
				<stop  offset="0.3138" style="stop-color:#FBA94A"/>
				<stop  offset="0.9964" style="stop-color:#F36F56"/>
			</linearGradient>
			<polygon style="fill:url(#SVGID_00000071544605336522505280000000090414924609447864_);" points="826.271,1678.012 
				1078.752,1678.012 1078.752,1159.937 822.656,1178.203 			"/>
			
				<linearGradient id="SVGID_00000106113366655918072250000015940844513739209096_" gradientUnits="userSpaceOnUse" x1="2174.2856" y1="2196.5566" x2="2275.4119" y2="1166.5608">
				<stop  offset="0" style="stop-color:#FFC444"/>
				<stop  offset="0.3138" style="stop-color:#FBA94A"/>
				<stop  offset="0.9964" style="stop-color:#F36F56"/>
			</linearGradient>
			<polygon style="fill:url(#SVGID_00000106113366655918072250000015940844513739209096_);" points="2120.499,1678.012 
				2374.919,1678.012 2374.919,1200.505 2120.499,1219.437 			"/>
			
				<linearGradient id="SVGID_00000049195522152245279020000011167615663874985129_" gradientUnits="userSpaceOnUse" x1="628.6288" y1="556.9363" x2="1134.3635" y2="1547.1113">
				<stop  offset="0" style="stop-color:#AA80F9"/>
				<stop  offset="0.9964" style="stop-color:#6165D7"/>
			</linearGradient>
			<polygon style="fill:url(#SVGID_00000049195522152245279020000011167615663874985129_);" points="1058.124,1672.134 
				1003.114,1672.782 1003.114,1012.673 1058.124,1015.199 			"/>
			
				<linearGradient id="SVGID_00000055697533604942544510000015262791916176534675_" gradientUnits="userSpaceOnUse" x1="339.104" y1="704.8146" x2="844.8375" y2="1694.9873">
				<stop  offset="0" style="stop-color:#AA80F9"/>
				<stop  offset="0.9964" style="stop-color:#6165D7"/>
			</linearGradient>
			<polygon style="fill:url(#SVGID_00000055697533604942544510000015262791916176534675_);" points="1058.124,2385.149 
				1003.114,2389.242 1003.114,1729.133 1058.124,1728.214 			"/>
			
				<linearGradient id="SVGID_00000127036114500585065130000016120169915950871942_" gradientUnits="userSpaceOnUse" x1="1472.483" y1="621.2971" x2="854.9535" y2="1158.9746">
				<stop  offset="0" style="stop-color:#AA80F9"/>
				<stop  offset="0.9964" style="stop-color:#6165D7"/>
			</linearGradient>
			
				<rect x="618.046" y="1007.581" style="fill:url(#SVGID_00000127036114500585065130000016120169915950871942_);" width="51.572" height="670.431"/>
			
				<linearGradient id="SVGID_00000171706821068878872950000011600803552985324448_" gradientUnits="userSpaceOnUse" x1="1830.0499" y1="1031.9692" x2="1212.5231" y2="1569.6444">
				<stop  offset="0" style="stop-color:#AA80F9"/>
				<stop  offset="0.9964" style="stop-color:#6165D7"/>
			</linearGradient>
			
				<rect x="618.046" y="1733.021" style="fill:url(#SVGID_00000171706821068878872950000011600803552985324448_);" width="51.572" height="663.555"/>
			
				<linearGradient id="SVGID_00000008116918703830756420000014676082739397523602_" gradientUnits="userSpaceOnUse" x1="400.3106" y1="2055.5181" x2="752.4709" y2="2067.0642">
				<stop  offset="0" style="stop-color:#AA80F9"/>
				<stop  offset="0.9964" style="stop-color:#6165D7"/>
			</linearGradient>
			
				<rect x="669.618" y="1733.021" style="fill:url(#SVGID_00000008116918703830756420000014676082739397523602_);" width="27.505" height="663.555"/>
			
				<linearGradient id="SVGID_00000106853363248008700010000003407158762923002247_" gradientUnits="userSpaceOnUse" x1="824.8901" y1="2056.8135" x2="1127.8933" y2="2066.748">
				<stop  offset="0" style="stop-color:#AA80F9"/>
				<stop  offset="0.9964" style="stop-color:#6165D7"/>
			</linearGradient>
			
				<rect x="1058.124" y="1733.021" style="fill:url(#SVGID_00000106853363248008700010000003407158762923002247_);" width="20.629" height="663.555"/>
			
				<linearGradient id="SVGID_00000085235938250644772420000000231775907349662142_" gradientUnits="userSpaceOnUse" x1="823.5946" y1="1365.7115" x2="1128.2095" y2="1375.699">
				<stop  offset="0" style="stop-color:#AA80F9"/>
				<stop  offset="0.9964" style="stop-color:#6165D7"/>
			</linearGradient>
			
				<rect x="1058.124" y="1038.524" style="fill:url(#SVGID_00000085235938250644772420000000231775907349662142_);" width="20.629" height="670.431"/>
			
				<linearGradient id="SVGID_00000146485542981647651660000014407113632612172690_" gradientUnits="userSpaceOnUse" x1="2529.0999" y1="1642.1477" x2="2976.7539" y2="1656.8248">
				<stop  offset="0" style="stop-color:#AA80F9"/>
				<stop  offset="0.9964" style="stop-color:#6165D7"/>
			</linearGradient>
			
				<rect x="2876.882" y="1066.029" style="fill:url(#SVGID_00000146485542981647651660000014407113632612172690_);" width="24.067" height="1175.832"/>
			
				<linearGradient id="SVGID_00000139262996018597306490000011374488509282146230_" gradientUnits="userSpaceOnUse" x1="399.0151" y1="1364.416" x2="752.7872" y2="1376.0151">
				<stop  offset="0" style="stop-color:#AA80F9"/>
				<stop  offset="0.9964" style="stop-color:#6165D7"/>
			</linearGradient>
			
				<rect x="669.618" y="1038.524" style="fill:url(#SVGID_00000139262996018597306490000011374488509282146230_);" width="27.505" height="670.431"/>
			
				<linearGradient id="SVGID_00000074416957809188550730000001395144153500119467_" gradientUnits="userSpaceOnUse" x1="2950.8311" y1="1018.1542" x2="2860.8059" y2="2111.9607">
				<stop  offset="0" style="stop-color:#AA80F9"/>
				<stop  offset="0.9964" style="stop-color:#6165D7"/>
			</linearGradient>
			<polygon style="fill:url(#SVGID_00000074416957809188550730000001395144153500119467_);" points="2942.206,1651.041 
				2900.949,1651.504 2900.949,1096.127 2942.206,1097.911 			"/>
			
				<linearGradient id="SVGID_00000015342794494724500540000013564083512277152141_" gradientUnits="userSpaceOnUse" x1="2950.9595" y1="1618.161" x2="2860.5403" y2="2716.7559">
				<stop  offset="0" style="stop-color:#AA80F9"/>
				<stop  offset="0.9964" style="stop-color:#6165D7"/>
			</linearGradient>
			<polygon style="fill:url(#SVGID_00000015342794494724500540000013564083512277152141_);" points="2942.206,2251.39 
				2900.949,2254.291 2900.949,1698.914 2942.206,1698.26 			"/>
			
				<linearGradient id="SVGID_00000125588362361476119770000013625117202605157534_" gradientUnits="userSpaceOnUse" x1="3348.0513" y1="222.3976" x2="-285.8712" y2="2357.4177">
				<stop  offset="0" style="stop-color:#AA80F9"/>
				<stop  offset="0.9964" style="stop-color:#6165D7"/>
			</linearGradient>
			<polygon style="fill:url(#SVGID_00000125588362361476119770000013625117202605157534_);" points="2969.711,1130.73 
				906.847,1046.346 906.847,970.618 2969.711,1067.982 			"/>
			
				<linearGradient id="SVGID_00000089559745734152850430000015605783508171689645_" gradientUnits="userSpaceOnUse" x1="3396.8423" y1="836.6528" x2="-362.5948" y2="3045.416">
				<stop  offset="0" style="stop-color:#AA80F9"/>
				<stop  offset="0.9964" style="stop-color:#6165D7"/>
			</linearGradient>
			<polygon style="fill:url(#SVGID_00000089559745734152850430000015605783508171689645_);" points="2969.711,1713.388 
				906.847,1749.529 906.847,1673.802 2969.711,1650.64 			"/>
			<g>
				<g>
					
						<linearGradient id="SVGID_00000139259351418242982020000014983655054699832500_" gradientUnits="userSpaceOnUse" x1="1975.8116" y1="1059.3428" x2="414.4562" y2="1976.6781">
						<stop  offset="0" style="stop-color:#FFC444"/>
						<stop  offset="0.3138" style="stop-color:#FBA94A"/>
						<stop  offset="0.9964" style="stop-color:#F36F56"/>
					</linearGradient>
					<polygon style="fill:url(#SVGID_00000139259351418242982020000014983655054699832500_);" points="1670.107,1665.229 
						1078.752,1671.787 1078.752,1160.111 1670.107,1179.014 					"/>
					<g>
						<polygon style="fill:#FFFFFF;" points="1412.249,1269.202 1315.982,1266.817 1315.982,1167.534 1412.249,1170.773 						"/>
						<polygon style="fill:#FFFFFF;" points="1412.249,1668.096 1315.982,1669.174 1315.982,1569.891 1412.249,1569.667 						"/>
					</g>
				</g>
				<g>
					
						<linearGradient id="SVGID_00000029028102045905153010000007304967801710725769_" gradientUnits="userSpaceOnUse" x1="3113.1238" y1="1132.3889" x2="1812.9633" y2="1896.2657">
						<stop  offset="0" style="stop-color:#FFC444"/>
						<stop  offset="0.3138" style="stop-color:#FBA94A"/>
						<stop  offset="0.9964" style="stop-color:#F36F56"/>
					</linearGradient>
					<polygon style="fill:url(#SVGID_00000029028102045905153010000007304967801710725769_);" points="2849.377,1652.052 
						2374.919,1657.335 2374.919,1201.398 2849.377,1216.412 					"/>
					<g>
						<polygon style="fill:#FFFFFF;" points="2636.215,1297.756 2564.014,1295.97 2564.014,1207.314 2636.215,1209.773 						"/>
						<polygon style="fill:#FFFFFF;" points="2636.215,1654.321 2564.014,1655.262 2564.014,1566.605 2636.215,1566.338 						"/>
					</g>
				</g>
				<g>
					
						<linearGradient id="SVGID_00000107584362719715786270000011077043599544777355_" gradientUnits="userSpaceOnUse" x1="2510.3081" y1="1178.3175" x2="1205.764" y2="1944.7698">
						<stop  offset="0" style="stop-color:#FFC444"/>
						<stop  offset="0.3138" style="stop-color:#FBA94A"/>
						<stop  offset="0.9964" style="stop-color:#F36F56"/>
					</linearGradient>
					<polygon style="fill:url(#SVGID_00000107584362719715786270000011077043599544777355_);" points="2268.337,1658.44 
						1745.745,1664.408 1745.745,1289.559 2268.337,1301.201 					"/>
					<g>
						<polygon style="fill:#FFFFFF;" points="2172.07,1524.039 2172.07,1444.171 2268.337,1445.056 2268.337,1524.176 						"/>
						<polygon style="fill:#FFFFFF;" points="1745.745,1523.525 1745.745,1440.505 1855.765,1441.377 1855.765,1523.596 						"/>
					</g>
				</g>
			</g>
			
				<linearGradient id="SVGID_00000026128815299254429130000013386898674414857910_" gradientUnits="userSpaceOnUse" x1="1339.5554" y1="468.6312" x2="722.0276" y2="1006.3072">
				<stop  offset="0" style="stop-color:#AA80F9"/>
				<stop  offset="0.9964" style="stop-color:#6165D7"/>
			</linearGradient>
			<polygon style="fill:url(#SVGID_00000026128815299254429130000013386898674414857910_);" points="501.151,997.664 
				906.847,970.618 906.847,1046.346 501.151,1063.925 			"/>
			
				<linearGradient id="SVGID_00000061438250847809615100000009042828431746005672_" gradientUnits="userSpaceOnUse" x1="1681.4659" y1="861.3208" x2="1063.937" y2="1398.9978">
				<stop  offset="0" style="stop-color:#AA80F9"/>
				<stop  offset="0.9964" style="stop-color:#6165D7"/>
			</linearGradient>
			
				<rect x="501.151" y="1678.012" style="fill:url(#SVGID_00000061438250847809615100000009042828431746005672_);" width="405.697" height="68.762"/>
			
				<linearGradient id="SVGID_00000070076386116935541630000003381949018393706914_" gradientUnits="userSpaceOnUse" x1="2027.9662" y1="1259.2809" x2="1410.4397" y2="1796.9557">
				<stop  offset="0" style="stop-color:#AA80F9"/>
				<stop  offset="0.9964" style="stop-color:#6165D7"/>
			</linearGradient>
			
				<rect x="501.151" y="2372.509" style="fill:url(#SVGID_00000070076386116935541630000003381949018393706914_);" width="405.697" height="79.076"/>
			
				<linearGradient id="SVGID_00000152227320066767186420000016986325511331737006_" gradientUnits="userSpaceOnUse" x1="3445.6333" y1="1450.908" x2="-439.3185" y2="3733.4143">
				<stop  offset="0" style="stop-color:#AA80F9"/>
				<stop  offset="0.9964" style="stop-color:#6165D7"/>
			</linearGradient>
			<polygon style="fill:url(#SVGID_00000152227320066767186420000016986325511331737006_);" points="2969.711,2296.047 
				906.847,2452.713 906.847,2376.986 2969.711,2233.299 			"/>
		</g>
		<g>
			<g>
				<g>
					
						<linearGradient id="SVGID_00000116235898724017227160000003666164732762173344_" gradientUnits="userSpaceOnUse" x1="2568.3198" y1="869.3025" x2="2582.6658" y2="4225.5908" gradientTransform="matrix(1 0 0 1 -26.5029 0)">
						<stop  offset="0" style="stop-color:#AA80F9"/>
						<stop  offset="0.9964" style="stop-color:#6165D7"/>
					</linearGradient>
					<path style="fill:url(#SVGID_00000116235898724017227160000003666164732762173344_);" d="M2807.212,2828.219
						c-93.08,183.709-226.007,203.223-256.95,205.078v0.15c0,0,2.784,0.09,0,0.03c-2.784,0.06,0-0.03,0-0.03v-0.15
						c-34.381-1.526-123.755-15.115-207.289-123.22c-17.629-22.807-35.973-49.833-52.195-81.858
						c-108.135-213.399-28.211-323.301-28.211-323.301l287.696-0.688v-0.03v0.03v-0.03v0.03l121.997,0.299l164.853,0.389
						C2837.112,2504.919,2915.347,2614.821,2807.212,2828.219z"/>
					
						<linearGradient id="SVGID_00000108989411683764540280000014306710440687020170_" gradientUnits="userSpaceOnUse" x1="2574.3215" y1="2245.1543" x2="2576.3171" y2="2712.0574" gradientTransform="matrix(1 0 0 1 -26.5029 0)">
						<stop  offset="0" style="stop-color:#444B8C"/>
						<stop  offset="0.9964" style="stop-color:#26264F"/>
					</linearGradient>
					
						<ellipse style="fill:url(#SVGID_00000108989411683764540280000014306710440687020170_);" cx="2548.948" cy="2509.371" rx="290.791" ry="36.831"/>
					
						<linearGradient id="SVGID_00000176741679639495787660000005983636382935567264_" gradientUnits="userSpaceOnUse" x1="2622.2456" y1="874.6556" x2="2636.5544" y2="4222.2847" gradientTransform="matrix(1 0 0 1 -26.5029 0)">
						<stop  offset="0" style="stop-color:#AA80F9"/>
						<stop  offset="0.9964" style="stop-color:#6165D7"/>
					</linearGradient>
					<path style="opacity:0.3;fill:url(#SVGID_00000176741679639495787660000005983636382935567264_);" d="M2807.212,2828.219
						c-93.08,183.709-226.007,203.223-256.95,205.078v0.15c0,0,2.784,0.09,0,0.03c-2.784,0.06,0-0.03,0-0.03v-0.15
						c-34.381-1.526-123.755-15.115-207.289-123.22c0.479-99.546,230.581-167.188,302.741-213.339
						c91.285-58.363,17.405-187.36,17.405-187.36c3.532-1.676,6.757-3.292,10.199-4.848l164.324,0.389
						C2837.641,2504.919,2915.347,2614.821,2807.212,2828.219z"/>
				</g>
				
					<linearGradient id="SVGID_00000115480824650876229570000015142830493591845055_" gradientUnits="userSpaceOnUse" x1="1981.3914" y1="1991.79" x2="2284.6602" y2="1991.79" gradientTransform="matrix(1 0 0 1 -26.5029 0)">
					<stop  offset="0" style="stop-color:#444B8C"/>
					<stop  offset="0.9964" style="stop-color:#26264F"/>
				</linearGradient>
				
					<ellipse style="fill:url(#SVGID_00000115480824650876229570000015142830493591845055_);" cx="2106.523" cy="1991.79" rx="151.634" ry="194.027"/>
				
					<linearGradient id="SVGID_00000112613297894882592870000000783474460143660430_" gradientUnits="userSpaceOnUse" x1="2023.9106" y1="2035.5018" x2="3090.6658" y2="2035.5018" gradientTransform="matrix(1 0 0 1 -26.5029 0)">
					<stop  offset="0" style="stop-color:#AA80F9"/>
					<stop  offset="0.9964" style="stop-color:#6165D7"/>
				</linearGradient>
				<path style="fill:url(#SVGID_00000112613297894882592870000000783474460143660430_);" d="M3064.163,2035.502
					c0,241.383-238.809,437.033-533.378,437.033c-45.253,0-89.159-4.609-131.121-13.318
					c-231.178-47.858-402.256-219.415-402.256-423.715c0-241.353,238.809-437.033,533.377-437.033
					c82.757,0,161.112,15.444,231.029,43.009C2940.703,1712.022,3064.163,1861.969,3064.163,2035.502z"/>
				<path style="fill:#F4F7FA;" d="M2174.604,2234.997l411.253,35.892c90.912,7.935,169.339-63.183,172.519-159.85l3.393-103.146
					c1.46-44.37-32.513-81.377-75.305-82.481l-586.261-15.12c-34.047-0.878-61.321,30.067-61.321,68.983v90.542
					C2038.88,2154.767,2098.768,2228.378,2174.604,2234.997z"/>
				
					<linearGradient id="SVGID_00000118358263668027744480000013363382631229111459_" gradientUnits="userSpaceOnUse" x1="4254.686" y1="2079.0461" x2="4915.9092" y2="2079.0461" gradientTransform="matrix(-1 0 0 1 6983.6094 0)">
					<stop  offset="0" style="stop-color:#444B8C"/>
					<stop  offset="0.9964" style="stop-color:#26264F"/>
				</linearGradient>
				<path style="fill:url(#SVGID_00000118358263668027744480000013363382631229111459_);" d="M2164.732,2176.012l440.046,32.394
					c64.989,4.784,120.514-46.585,122.671-115.224l1.432-45.556c1.384-44.018-32.217-80.893-74.485-82.185l-524.598-16.037
					c-34.398-1.052-61.994,29.862-62.045,68.909l-0.053,40.43C2067.62,2119.695,2110.614,2172.029,2164.732,2176.012z"/>
				<path style="fill:#D8DEE8;" d="M2497.806,2064.058c-4.141-6.807-6.647-14.325-6.51-22.272
					c0.444-25.761,26.26-45.404,57.988-43.802c32.094,1.621,57.905,24.311,57.313,50.606c-0.183,8.111-3.094,15.448-7.662,21.838
					L2497.806,2064.058z"/>
				<path style="fill:#D8DEE8;" d="M2185.71,2051.61c-3.815-6.464-6.167-13.61-6.13-21.171c0.12-24.509,23.217-43.257,51.876-41.81
					c28.967,1.463,52.489,22.963,52.248,47.954c-0.074,7.709-2.617,14.692-6.665,20.78L2185.71,2051.61z"/>
				
					<linearGradient id="SVGID_00000025440243739948450210000000877440281503878305_" gradientUnits="userSpaceOnUse" x1="2742.5251" y1="-919.0283" x2="2765.0012" y2="4339.374" gradientTransform="matrix(1 0 0 1 -26.5029 0)">
					<stop  offset="0" style="stop-color:#AA80F9"/>
					<stop  offset="0.9964" style="stop-color:#6165D7"/>
				</linearGradient>
				<path style="opacity:0.3;fill:url(#SVGID_00000025440243739948450210000000877440281503878305_);" d="M3064.163,2035.502
					c0,241.383-238.809,437.033-533.378,437.033c-45.253,0-89.159-4.609-131.121-13.318
					c-41.484-130.942,192.956-274.546,327.79-366.041c165.182-112.086,34.359-451.699,34.359-451.699
					C2940.703,1712.022,3064.163,1861.969,3064.163,2035.502z"/>
				
					<linearGradient id="SVGID_00000118385853010563260520000004408889865741968801_" gradientUnits="userSpaceOnUse" x1="2866.2415" y1="2067.8828" x2="3169.5103" y2="2067.8828" gradientTransform="matrix(1 0 0 1 -26.5029 0)">
					<stop  offset="0" style="stop-color:#444B8C"/>
					<stop  offset="0.9964" style="stop-color:#26264F"/>
				</linearGradient>
				
					<ellipse style="fill:url(#SVGID_00000118385853010563260520000004408889865741968801_);" cx="2991.373" cy="2067.883" rx="151.634" ry="194.027"/>
			</g>
			
				<linearGradient id="SVGID_00000075129944335333410960000016170755497628760706_" gradientUnits="userSpaceOnUse" x1="650.9601" y1="2527.2542" x2="-24.5747" y2="2924.1477" gradientTransform="matrix(-1 0 0 1 3286.3164 0)">
				<stop  offset="0" style="stop-color:#AA80F9"/>
				<stop  offset="0.9964" style="stop-color:#6165D7"/>
			</linearGradient>
			<path style="fill:url(#SVGID_00000075129944335333410960000016170755497628760706_);" d="M3072.82,2708.249l-220.14-134.151
				c-30.996-18.888-71.298-10.831-92.649,18.522v0c-24.303,33.411-14.379,80.508,21.34,101.272l223.312,129.813L3072.82,2708.249z"
				/>
			
				<linearGradient id="SVGID_00000030475287681006877850000001387698669488422076_" gradientUnits="userSpaceOnUse" x1="4276.9106" y1="1441.8547" x2="4582.9141" y2="1441.8547" gradientTransform="matrix(-0.4727 0.8812 0.8812 0.4727 3755.3245 -1739.813)">
				<stop  offset="0" style="stop-color:#AA80F9"/>
				<stop  offset="0.9964" style="stop-color:#6165D7"/>
			</linearGradient>
			<path style="fill:url(#SVGID_00000030475287681006877850000001387698669488422076_);" d="M3045.904,2732.941l-243.918,83.44
				c-34.343,11.748-53.924,47.884-45.014,83.07h0c10.142,40.051,52.695,62.542,91.501,48.362l242.612-88.652L3045.904,2732.941z"/>
			
				<linearGradient id="SVGID_00000029017075233585518800000012492710700457141177_" gradientUnits="userSpaceOnUse" x1="-2277.9922" y1="223.736" x2="-2486.4844" y2="487.0945" gradientTransform="matrix(-0.7131 -0.7011 -0.7011 0.7131 1607.4921 902.4711)">
				<stop  offset="0" style="stop-color:#444B8C"/>
				<stop  offset="0.9964" style="stop-color:#26264F"/>
			</linearGradient>
			
				<circle style="fill:url(#SVGID_00000029017075233585518800000012492710700457141177_);" cx="3061.894" cy="2781.445" r="93.353"/>
			<g>
				
					<linearGradient id="SVGID_00000183226133562732944540000013135500735218040764_" gradientUnits="userSpaceOnUse" x1="3902.0186" y1="2443.0139" x2="3536.283" y2="3060.7004" gradientTransform="matrix(-1 0 0 1 6308.8105 0)">
					<stop  offset="0" style="stop-color:#FFC444"/>
					<stop  offset="0.3138" style="stop-color:#FBA94A"/>
					<stop  offset="0.9964" style="stop-color:#F36F56"/>
				</linearGradient>
				<polygon style="fill:url(#SVGID_00000183226133562732944540000013135500735218040764_);" points="2404.559,3003.117 
					2738.804,2960 2738.804,2439.871 2404.559,2405.982 				"/>
				<g>
					
						<linearGradient id="SVGID_00000041984016091338743490000010051376114629690039_" gradientUnits="userSpaceOnUse" x1="4258.2295" y1="2424.2058" x2="3854.0889" y2="3106.7546" gradientTransform="matrix(-1 0 0 1 6308.8105 0)">
						<stop  offset="0" style="stop-color:#FFC444"/>
						<stop  offset="0.3138" style="stop-color:#FBA94A"/>
						<stop  offset="0.9964" style="stop-color:#F36F56"/>
					</linearGradient>
					<polygon style="fill:url(#SVGID_00000041984016091338743490000010051376114629690039_);" points="1996.86,2949.53 
						2404.559,3003.117 2404.559,2405.982 1996.86,2413.633 					"/>
					<polygon style="fill:#FFFFFF;" points="2254.688,2408.794 2254.688,2493.774 2118.535,2491.24 2118.535,2411.35 					"/>
				</g>
			</g>
			
				<linearGradient id="SVGID_00000180358325758089006340000012013338645319096728_" gradientUnits="userSpaceOnUse" x1="-2222.0552" y1="-535.504" x2="-2056.8533" y2="-535.504" gradientTransform="matrix(-0.8856 -0.4644 -0.4644 0.8856 608.5652 2383.1592)">
				<stop  offset="0" style="stop-color:#444B8C"/>
				<stop  offset="0.9964" style="stop-color:#26264F"/>
			</linearGradient>
			<path style="fill:url(#SVGID_00000180358325758089006340000012013338645319096728_);" d="M2782.969,2787.509l-55.817,7.82
				c-16.969,2.377-26.971,20.103-20.489,35.964c13.727,33.591,26.513,87.013-10.483,121.258c-9.73,9.006-22.387,14.221-35.617,15.08
				l-21.533,1.398c0,0,62.13,86.204,156.757,6.26c74.307-62.778,33.63-144.102,12.735-176.133
				C2802.969,2790.644,2793.033,2786.099,2782.969,2787.509z"/>
		</g>
		<g>
			<g>
				
					<linearGradient id="SVGID_00000021105348200524046330000002269877231818106502_" gradientUnits="userSpaceOnUse" x1="-4210.4585" y1="1306.6666" x2="-4659.2368" y2="4781.0596" gradientTransform="matrix(0.7981 -0.6026 0.6026 0.7981 3256.4519 -1846.4993)">
					<stop  offset="0" style="stop-color:#FF9085"/>
					<stop  offset="1" style="stop-color:#FB6FBB"/>
				</linearGradient>
				<path style="fill:url(#SVGID_00000021105348200524046330000002269877231818106502_);" d="M1356.645,3053.97
					c-48.3,30.791-116.162,62.145-199.742,67.811c-90.428,6.13-230.7-15.678-248.816-82.475
					c-6.764-24.938,2.989-58.027,23.615-71.149c30.472-19.385,63.949,17.997,146.614,23.737
					c15.277,1.061,94.263,6.546,107.41-25.323c6.536-15.844-4.516-37.728-17.49-50.915c-37.933-38.559-95.153-5.677-180.373-14.08
					c-86.401-8.521-190.729-58.411-208.288-132.137c-10.091-42.367,7.815-95.364,37.401-106.606
					c12.644-4.804,25.609-1.294,108.398,42.926c67.95,36.294,85.974,48.222,106.618,40.941c21.25-7.494,42.737-34.445,40.116-58.976
					c-6.826-63.889-169.844-42.749-273.115-158.001c-46.279-51.648-93.073-144.653-56.358-199.882
					c24.82-37.336,86.579-55.562,127.353-37.717c36.757,16.087,33.577,51.473,92.894,105.172c18,16.295,55.042,49.827,72.353,39.984
					c20.323-11.556,3.314-77.13-1.085-92.906c-33.12-118.768-109.974-134.674-109.575-204.771
					c0.312-54.659,47.426-112.09,106.296-129.048c51.514-14.839,113.553,0.875,146.862,40.554
					c33.89,40.37,30.132,108.869,22.616,245.866c-3.565,64.967-9.995,111.896,21.288,150.176
					c15.25,18.661,43.281,39.941,58.911,32.017c34.497-17.489-42.918-151.122,14.823-224.381
					c29.555-37.498,89.706-53.071,134.915-35.043c55.392,22.088,82.432,92.256,74.358,145.984
					c-10.534,70.1-74.698,71.315-118.65,171.254c-19.499,44.335-42.229,124.49-9.414,151.808
					c14.287,11.895,40.109,14.61,58.152,3.949c40.441-23.895,6.654-94.228,46.278-166.276
					c28.548-51.908,89.786-94.86,122.328-81.229c45.942,19.246,33.766,150.88,22.005,213.863
					C1611.126,2735.233,1563.063,2895.548,1356.645,3053.97z"/>
				<g style="opacity:0.5;">
					<path style="fill:#FFFFFF;" d="M1360.155,3020.811c-83.41-97.907-173.076-357.606-198.159-493.378
						c-24.443-132.298-93.213-319.046-93.904-320.917l9.051-3.347c0.695,1.878,69.749,189.391,94.341,322.51
						c24.893,134.736,113.629,392.165,196.017,488.873L1360.155,3020.811z"/>
				</g>
			</g>
			
				<linearGradient id="SVGID_00000113335478768510157290000008611041165878447790_" gradientUnits="userSpaceOnUse" x1="1355.1134" y1="2219.1777" x2="1390.46" y2="3081.6233">
				<stop  offset="0.0036" style="stop-color:#E38DDD"/>
				<stop  offset="1" style="stop-color:#9571F6"/>
			</linearGradient>
			<path style="fill:url(#SVGID_00000113335478768510157290000008611041165878447790_);" d="M1314.297,3046.154
				c-56.861-46.678-145.434-134.619-193.303-271.005c-19.725-56.198-58.251-165.961-15.318-280.842
				c21.398-57.258,74.979-147.757,129.407-140.184c35.021,4.873,67.929,50.008,69.184,90.632
				c1.265,40.962-30.397,53.185-48.546,128.082c-6.716,27.714-14.186,60.137,1.609,73.146c13.191,10.865,40.301,6.289,58.007-7.021
				c36.575-27.492,10.237-75.122,44.839-123.47c24.604-34.38,73.879-60.541,102.196-45.236
				c24.587,13.289,32.625,57.434,22.879,90.867c-15.605,53.534-69.123,53.236-88.293,112.322
				c-8.505,26.213-9.804,62.744,6.379,72.76c18.441,11.412,57.329-12.999,80.026-37.04c29.966-31.74,25.018-55.746,47.849-64.974
				c25.466-10.293,65.054,6.06,77.565,32.449c17.523,36.96-19.051,91.533-51.985,119.763c-42.163,36.14-81.717,31.981-96.88,70.102
				c-5.565,13.991-8.443,35.18,1.735,44.877c14.521,13.834,49.719-1.339,73.09-11.414c56.879-24.518,67.487-50.316,91.472-45.51
				c24.284,4.867,44.827,37.608,42.174,65.101c-1.474,15.28-11.271,40.938-84.551,74.812
				C1532.536,3018.08,1443.915,3048.693,1314.297,3046.154z"/>
		</g>
	</g>
</g>
</svg>
